<svg width="20" height="16" viewBox="0 0 20 16" fill="none" xmlns="http://www.w3.org/2000/svg">
<path fill-rule="evenodd" clip-rule="evenodd" d="M1 2C1.55228 2 2 1.55228 2 1C2 0.447715 1.55228 0 1 0C0.447715 0 0 0.447715 0 1C0 1.55228 0.447715 2 1 2ZM19 2C19.5523 2 20 1.55228 20 1C20 0.447715 19.5523 0 19 0H5C4.44771 0 4 0.447713 4 0.999998C4 1.55228 4.44771 2 5 2L19 2ZM19 9C19.5523 9 20 8.55228 20 8C20 7.44772 19.5523 7 19 7L5 7C4.44771 7 4 7.44771 4 8C4 8.55228 4.44771 9 5 9L19 9ZM20 15C20 15.5523 19.5523 16 19 16L5 16C4.44771 16 4 15.5523 4 15C4 14.4477 4.44771 14 5 14L19 14C19.5523 14 20 14.4477 20 15ZM2 8C2 8.55229 1.55228 9 1 9C0.447715 9 0 8.55229 0 8C0 7.44772 0.447715 7 1 7C1.55228 7 2 7.44772 2 8ZM1 16C1.55228 16 2 15.5523 2 15C2 14.4477 1.55228 14 1 14C0.447715 14 0 14.4477 0 15C0 15.5523 0.447715 16 1 16Z" fill="#7C7B7B"/>
</svg>
