<svg width="14" height="14" viewBox="0 0 14 14" fill="none" xmlns="http://www.w3.org/2000/svg">
<path fill-rule="evenodd" clip-rule="evenodd" d="M7.04348 1.82609C7.04348 1.68201 7.16027 1.56522 7.30435 1.56522H12.1739C12.318 1.56522 12.4348 1.68201 12.4348 1.82609V6.69565C12.4348 6.83973 12.318 6.95652 12.1739 6.95652H10.4348C10.0026 6.95652 9.65217 7.30691 9.65217 7.73913C9.65217 8.17136 10.0026 8.52174 10.4348 8.52174H12.1739C13.1824 8.52174 14 7.70418 14 6.69565V1.82609C14 0.817568 13.1824 0 12.1739 0H7.30435C6.29583 0 5.47826 0.817569 5.47826 1.82609V3.56522C5.47826 3.99744 5.82865 4.34783 6.26087 4.34783C6.69309 4.34783 7.04348 3.99744 7.04348 3.56522V1.82609ZM1.56522 12.4348V7.21739H6.78261V12.4348H1.56522ZM0 6.69565C0 6.11936 0.467181 5.65217 1.04348 5.65217H7.30435C7.88065 5.65217 8.34783 6.11936 8.34783 6.69565V12.9565C8.34783 13.5328 7.88065 14 7.30435 14H1.04348C0.467181 14 0 13.5328 0 12.9565V6.69565Z" fill="#6C6C6C"/>
<path d="M1.56522 7.21739V12.4348H6.78261V7.21739H1.56522Z" fill="#6C6C6C"/>
<path d="M7.30435 1.56522C7.16027 1.56522 7.04348 1.68201 7.04348 1.82609V3.56522C7.04348 3.99744 6.69309 4.34783 6.26087 4.34783H7.65217C8.75674 4.34783 9.65217 5.24326 9.65217 6.34783V7.73913C9.65217 7.30691 10.0026 6.95652 10.4348 6.95652H12.1739C12.318 6.95652 12.4348 6.83973 12.4348 6.69565V1.82609C12.4348 1.68201 12.318 1.56522 12.1739 1.56522H7.30435Z" fill="#6C6C6C"/>
</svg>
