<svg width="4" height="14" viewBox="0 0 4 14" fill="none" xmlns="http://www.w3.org/2000/svg">
<path fill-rule="evenodd" clip-rule="evenodd" d="M1.99984 3.00004C2.73622 3.00004 3.33317 2.40309 3.33317 1.66671C3.33317 0.930328 2.73622 0.333374 1.99984 0.333374C1.26346 0.333374 0.666504 0.930328 0.666504 1.66671C0.666504 2.40309 1.26346 3.00004 1.99984 3.00004ZM1.99984 8.33337C2.73622 8.33337 3.33317 7.73642 3.33317 7.00004C3.33317 6.26366 2.73622 5.66671 1.99984 5.66671C1.26346 5.66671 0.666504 6.26366 0.666504 7.00004C0.666504 7.73642 1.26346 8.33337 1.99984 8.33337ZM3.33317 12.3334C3.33317 13.0698 2.73622 13.6667 1.99984 13.6667C1.26346 13.6667 0.666504 13.0698 0.666504 12.3334C0.666504 11.597 1.26346 11 1.99984 11C2.73622 11 3.33317 11.597 3.33317 12.3334Z" fill="#6C6C6C"/>
</svg>
