<svg width="12" height="14" viewBox="0 0 12 14" fill="none" xmlns="http://www.w3.org/2000/svg">
<path d="M1.72603 1.55556L8.1561 1.55555C8.231 1.55555 8.30185 1.59136 8.34864 1.65286L10.4665 4.43639C10.5015 4.48236 10.5205 4.53948 10.5205 4.59835V12.1852C10.5205 12.3284 10.4102 12.4444 10.274 12.4444H8.71233V9.41975C8.71233 8.41745 7.93956 7.60493 6.9863 7.60493H5.0137C4.06044 7.60493 3.28767 8.41745 3.28767 9.41975V12.4444H1.72603C1.58985 12.4444 1.47945 12.3284 1.47945 12.1852V1.81482C1.47945 1.67164 1.58985 1.55556 1.72603 1.55556Z" fill="white"/>
<path fill-rule="evenodd" clip-rule="evenodd" d="M1.72603 1.55556L8.1561 1.55555C8.231 1.55555 8.30185 1.59136 8.34864 1.65286L10.4665 4.43639C10.5015 4.48236 10.5205 4.53948 10.5205 4.59835V12.1852C10.5205 12.3284 10.4102 12.4444 10.274 12.4444H8.71233H7.23288H4.76712H3.28767H1.72603C1.58985 12.4444 1.47945 12.3284 1.47945 12.1852V1.81482C1.47945 1.67164 1.58985 1.55556 1.72603 1.55556ZM8.15609 0L1.72603 6.30484e-06C0.772768 7.23203e-06 0 0.812527 0 1.81482V12.1852C0 13.1875 0.772771 14 1.72603 14H10.274C11.2272 14 12 13.1875 12 12.1852V4.59835C12 4.18625 11.8666 3.78643 11.6218 3.46464L9.5039 0.68111C9.17634 0.250607 8.68044 -5.56309e-07 8.15609 0Z" fill="white"/>
<path d="M7.23288 12.4444V9.41975C7.23288 9.27656 7.12248 9.16049 6.9863 9.16049H5.0137C4.87752 9.16049 4.76712 9.27656 4.76712 9.41975V12.4444H7.23288Z" fill="white"/>
</svg>
