<svg width="14" height="14" viewBox="0 0 14 14" fill="none" xmlns="http://www.w3.org/2000/svg">
<path fill-rule="evenodd" clip-rule="evenodd" d="M1.55556 7C1.55556 3.99312 3.99312 1.55556 7 1.55556C10.0069 1.55556 12.4444 3.99312 12.4444 7C12.4444 10.0069 10.0069 12.4444 7 12.4444C3.99312 12.4444 1.55556 10.0069 1.55556 7ZM7 0C3.13401 0 0 3.13401 0 7C0 10.866 3.13401 14 7 14C10.866 14 14 10.866 14 7C14 3.13401 10.866 0 7 0ZM7 10.8891C6.57045 10.8891 6.22222 10.5409 6.22222 10.1114V5.9853C6.22222 5.55574 6.57045 5.20752 7 5.20752C7.42955 5.20752 7.77778 5.55574 7.77778 5.9853V10.1114C7.77778 10.5409 7.42955 10.8891 7 10.8891ZM6.30864 3.88824C6.30864 3.50666 6.61817 3.19733 7 3.19733C7.38183 3.19733 7.69136 3.50666 7.69136 3.88824C7.69136 4.26981 7.38183 4.57914 7 4.57914C6.61817 4.57914 6.30864 4.26981 6.30864 3.88824Z" fill="#7C7B7B"/>
</svg>
