<svg width="14" height="14" viewBox="0 0 14 14" fill="none" xmlns="http://www.w3.org/2000/svg">
<path fill-rule="evenodd" clip-rule="evenodd" d="M2.86358 3.45978C2.04814 4.41166 1.55556 5.64831 1.55556 7C1.55556 10.0069 3.99312 12.4444 7 12.4444C7.79946 12.4444 8.55868 12.2721 9.24254 11.9626C9.22891 11.8481 9.21833 11.7241 9.2074 11.5961C9.15816 11.0194 9.10188 10.3601 8.72839 10.1111C7.69136 9.41976 7.69136 8.7284 7.69136 8.38272C7.69136 7.55309 8.72839 7 9.41975 7.34568C9.41975 7.69136 9.83457 8.38271 10.1111 8.38272C10.3555 8.38272 10.4271 8.55556 10.5703 8.90124C10.6296 9.04442 10.7012 9.21726 10.8025 9.41975C10.9608 9.73643 11.2022 9.99266 11.423 10.1755C12.0658 9.28166 12.4444 8.18504 12.4444 7C12.4444 4.49095 10.7472 2.37831 8.43821 1.74753C8.45489 2.08832 8.25365 2.28956 8.08025 2.46297C7.8642 2.67901 7.69136 2.85185 8.03704 3.19753C8.32649 3.48699 8.10181 4.09026 7.89786 4.63788C7.81211 4.86811 7.73003 5.08851 7.69136 5.27161C7.60231 5.69321 7.16333 6.49099 7 6.65432C6.90882 6.7455 6.7455 6.86072 6.54809 7L6.54808 7C5.99705 7.38876 5.18043 7.96489 4.92593 8.7284C3.84629 8.18858 3.88585 6.87123 3.90395 6.26855C3.90903 6.09937 3.91242 5.9865 3.88889 5.96297C3.47024 5.54431 3.43186 5.25242 3.38996 4.93376C3.36267 4.72619 3.33388 4.50727 3.19753 4.23457L3.19753 4.23456C2.96377 3.76705 2.88809 3.61568 2.86358 3.45978ZM7 0C3.13401 0 0 3.13401 0 7C0 10.866 3.13401 14 7 14C10.866 14 14 10.866 14 7C14 3.13401 10.866 0 7 0Z" fill="white"/>
</svg>
