<svg width="268" height="42" viewBox="0 0 268 42" fill="none" xmlns="http://www.w3.org/2000/svg">
<path d="M2.61114 29.7552V17.4007C2.31442 16.8636 1.68141 16.5254 0.712124 16.3861C0.237371 16.3861 0 16.2668 0 16.028C0.0593441 15.9087 0.138471 15.8291 0.237378 15.7893H0.62311L3.76835 15.849L4.39146 15.8191H4.53982C4.99479 15.8191 5.31129 16.038 5.48932 16.4756L10.8006 29.0688L16.2603 16.2668C16.4185 15.9882 16.6361 15.839 16.9131 15.8191H17.2098L19.1385 15.849L20.4737 15.7594C21.1265 15.7197 21.4529 15.8291 21.4529 16.0877C21.4529 16.1673 21.166 16.2767 20.5924 16.416C19.8407 16.595 19.3462 16.8934 19.1088 17.3112C18.911 17.6494 18.8121 18.2264 18.8121 19.042V30.173C18.8121 31.1677 18.9604 31.7944 19.2571 32.053C19.4352 32.2122 20.0187 32.3912 21.0078 32.5902C21.0671 32.6499 21.1067 32.7195 21.1265 32.7991C21.1265 32.9781 21.0276 33.0676 20.8298 33.0676H20.444L17.5362 32.9781L13.9162 33.0676C13.7579 33.0676 13.6788 33.008 13.6788 32.8886C13.6788 32.6698 13.7975 32.5603 14.0349 32.5603C14.925 32.4012 15.5086 32.1823 15.7855 31.9038C16.0625 31.6253 16.2009 31.0483 16.2009 30.173V18.296L10.1478 32.5603C10.0291 32.8389 9.90056 32.9781 9.76209 32.9781C9.66319 32.9184 9.56428 32.819 9.46538 32.6797L3.38261 18.1468L3.35294 29.9641C3.35294 30.9588 3.58042 31.6352 4.03539 31.9933C4.27277 32.2321 4.5596 32.3813 4.89588 32.441C5.31129 32.4808 5.57834 32.5404 5.69703 32.62L5.78604 32.8289L5.69703 33.0378C5.57834 33.0975 5.35086 33.1273 5.01457 33.1273C4.83654 33.1273 4.57938 33.1074 4.2431 33.0676C3.90682 33.0279 3.64966 33.008 3.47162 33.008C3.23425 33.008 2.8683 33.0279 2.37376 33.0676C1.87923 33.1074 1.51327 33.1273 1.2759 33.1273L0.385737 33.0378C0.306612 33.0179 0.247268 32.9881 0.207705 32.9483C0.187924 32.8886 0.178032 32.8488 0.178032 32.8289C0.257158 32.6896 0.326393 32.6101 0.385737 32.5902C0.860489 32.4708 1.17699 32.3912 1.33524 32.3514C1.88912 32.2321 2.26496 31.8939 2.46278 31.3368C2.56168 31.0185 2.61114 30.4913 2.61114 29.7552Z" fill="#9B8652"/>
<path d="M27.8975 26.0548H33.8319L30.9537 18.6242L27.8975 26.0548ZM34.0693 26.8009H27.6008L26.5029 29.6358C26.2458 30.2924 26.1172 30.7897 26.1172 31.1279C26.1172 31.2473 26.1765 31.4462 26.2952 31.7248C26.3941 32.063 26.948 32.3713 27.9568 32.6499C28.0558 32.7095 28.1052 32.7792 28.1052 32.8587C28.1052 33.0179 27.9964 33.0975 27.7788 33.0975H27.4524C27.2348 33.0975 26.8788 33.0776 26.3842 33.0378C25.8897 32.9781 25.5138 32.9582 25.2567 32.9781L23.3577 33.0676C22.9818 33.0875 22.7346 33.0577 22.6159 32.9781L22.4675 32.7991C22.4675 32.7195 22.5466 32.6399 22.7049 32.5603C22.8631 32.4808 22.9917 32.441 23.0906 32.441C24.0995 32.3216 24.9896 31.3468 25.7611 29.5165L31.4582 15.849C31.5966 15.5307 31.7351 15.3715 31.8736 15.3715C32.0911 15.3715 32.2692 15.5505 32.4076 15.9086L38.0453 30.2028C38.4212 31.1379 38.8663 31.7745 39.3806 32.1127C39.5586 32.1724 39.8257 32.2719 40.1817 32.4111C40.5378 32.5305 40.8048 32.63 40.9829 32.7095L41.0125 32.8289C41.0125 32.9881 40.7554 33.0676 40.2411 33.0676L37.1552 33.008L35.7012 33.0378C35.3452 33.0975 34.9199 33.1273 34.4254 33.1273C33.911 33.1273 33.6044 33.0477 33.5055 32.8886C33.5055 32.7692 33.644 32.6598 33.9209 32.5603C33.9605 32.5603 34.0297 32.5404 34.1286 32.5006C35.1375 32.5006 35.6419 32.1525 35.6419 31.4562C35.6419 31.297 35.6122 31.0881 35.5529 30.8295C35.4935 30.6505 35.3946 30.352 35.2562 29.9343L34.0693 26.8009Z" fill="#9B8652"/>
<path d="M50.8275 24.9209L45.2491 17.5798C44.9524 17.2018 44.1908 16.7243 42.9644 16.1474C42.9644 15.9484 43.182 15.849 43.6172 15.849H43.7952C44.0919 15.849 44.6161 15.8689 45.3678 15.9086C46.0206 15.9683 46.5349 15.9882 46.9108 15.9683L48.5131 15.9086L49.1362 15.8191C49.2747 15.7992 49.4725 15.7893 49.7296 15.7893C50.1252 15.7893 50.3231 15.8689 50.3231 16.028C50.3231 16.227 50.1351 16.3264 49.7593 16.3264C48.8296 16.3264 48.3647 16.5751 48.3647 17.0725C48.3647 17.351 48.6021 17.7986 49.0768 18.4154L52.5781 22.9513L54.2991 20.743C54.6354 20.3252 55.0805 19.6886 55.6343 18.8331C55.9706 18.1766 56.1388 17.6693 56.1388 17.3112C56.1388 16.9133 56.0102 16.6746 55.753 16.595C55.6541 16.5353 55.4069 16.4856 55.0112 16.4458C54.6156 16.406 54.3782 16.3463 54.2991 16.2668L54.2101 16.1175C54.2101 15.8987 54.3881 15.7992 54.7442 15.8191L56.6432 15.9086H57.2663L59.6401 15.7893C59.917 15.7694 60.0852 15.839 60.1445 15.9982C60.1445 16.1573 59.9863 16.2866 59.6698 16.3861C59.6302 16.3861 59.4225 16.4259 59.0466 16.5055C58.4532 16.7044 57.6916 17.4107 56.7619 18.6242L53.0232 23.5183L59.1357 31.3368C59.5313 31.8342 60.1148 32.2122 60.8863 32.4708C61.183 32.5703 61.3314 32.6797 61.3314 32.7991C61.272 33.0179 61.0643 33.1174 60.7083 33.0975L60.2335 33.0676L58.0971 32.9781L55.1596 33.0676L54.3585 33.1273C53.9233 33.1671 53.7057 33.0776 53.7057 32.8587V32.7991C53.7057 32.5802 53.9529 32.4708 54.4475 32.4708C55.3376 32.4708 55.7827 32.2818 55.7827 31.9038C55.7827 31.486 55.5058 30.919 54.9519 30.2028L51.3022 25.5177L48.5427 29.0987C48.3251 29.3772 48.068 29.7552 47.7713 30.2327C47.4745 30.7101 47.3262 31.1279 47.3262 31.486C47.3262 32.0431 47.8009 32.3713 48.7505 32.4708C49.1461 32.5106 49.3439 32.62 49.3439 32.7991L49.3142 32.9483C49.2944 33.0676 49.0966 33.1273 48.7208 33.1273L47.8009 33.0378L46.7031 33.008L43.9436 33.0975C43.4886 33.1174 43.2611 33.0279 43.2611 32.8289L43.2908 32.7394C43.3303 32.62 43.8645 32.4012 44.8931 32.0829C45.3678 31.8242 45.7635 31.5059 46.08 31.1279C46.2184 30.9489 46.5448 30.5211 47.0591 29.8447L50.8275 24.9209Z" fill="#9B8652"/>
<path d="M69.2865 30.2924C69.2865 31.3866 69.603 32.0431 70.236 32.2619C70.5327 32.3216 71.0569 32.431 71.8086 32.5902C71.868 32.5902 71.9174 32.6101 71.957 32.6499L72.046 32.8289C72.046 32.8289 72.0361 32.8488 72.0163 32.8886C72.0163 32.9085 72.0064 32.9383 71.9866 32.9781C71.9669 33.0179 71.9273 33.0477 71.868 33.0676L71.2449 33.0975L67.9809 32.9781L64.717 33.0975L64.1236 33.0676C64.1236 33.0477 64.1038 33.0278 64.0642 33.008C64.0444 32.9881 64.0148 32.9781 63.9752 32.9781C63.9554 32.9582 63.9258 32.9284 63.8862 32.8886C63.8862 32.6499 64.084 32.5305 64.4796 32.5305C65.2709 32.5305 65.8346 32.3614 66.1709 32.0232C66.5072 31.6651 66.6754 31.0881 66.6754 30.2924V18.6242C66.6754 17.7489 66.5468 17.1819 66.2896 16.9233C66.0325 16.6447 65.4687 16.4557 64.5983 16.3563C64.3214 16.3563 64.1829 16.2568 64.1829 16.0579C64.262 15.9385 64.3412 15.8788 64.4203 15.8788L64.9841 15.849L68.3667 15.9385L70.6811 15.8788C71.3141 15.8589 71.6702 15.8888 71.7493 15.9683L71.7789 16.1175C71.7789 16.2767 71.6108 16.3563 71.2745 16.3563C70.4833 16.4557 69.9591 16.6646 69.7019 16.983C69.4448 17.3013 69.3162 17.8484 69.3162 18.6242L69.2865 30.2924Z" fill="#9B8652"/>
<path d="M77.1992 29.7552V17.4007C76.9025 16.8636 76.2695 16.5254 75.3002 16.3861C74.8254 16.3861 74.5881 16.2668 74.5881 16.028C74.6474 15.9087 74.7265 15.8291 74.8254 15.7893H75.2112L78.3564 15.849L78.9795 15.8191H79.1279C79.5828 15.8191 79.8993 16.038 80.0774 16.4756L85.3887 29.0688L90.8483 16.2668C91.0066 15.9882 91.2242 15.839 91.5011 15.8191H91.7978L93.7265 15.849L95.0618 15.7594C95.7145 15.7197 96.0409 15.8291 96.0409 16.0877C96.0409 16.1673 95.7541 16.2767 95.1805 16.416C94.4288 16.595 93.9342 16.8934 93.6968 17.3112C93.499 17.6494 93.4001 18.2264 93.4001 19.042V30.173C93.4001 31.1677 93.5485 31.7944 93.8452 32.053C94.0232 32.2122 94.6068 32.3912 95.5959 32.5902C95.6552 32.6499 95.6948 32.7195 95.7145 32.7991C95.7145 32.9781 95.6156 33.0676 95.4178 33.0676H95.0321L92.1242 32.9781L88.5042 33.0676C88.346 33.0676 88.2669 33.008 88.2669 32.8886C88.2669 32.6698 88.3856 32.5603 88.6229 32.5603C89.5131 32.4012 90.0966 32.1823 90.3736 31.9038C90.6505 31.6253 90.789 31.0483 90.789 30.173V18.296L84.7359 32.5603C84.6172 32.8389 84.4886 32.9781 84.3502 32.9781C84.2512 32.9184 84.1523 32.819 84.0534 32.6797L77.9707 18.1468L77.941 29.9641C77.941 30.9588 78.1685 31.6352 78.6235 31.9933C78.8608 32.2321 79.1477 32.3813 79.4839 32.441C79.8994 32.4808 80.1664 32.5404 80.2851 32.62L80.3741 32.8289L80.2851 33.0378C80.1664 33.0975 79.9389 33.1273 79.6026 33.1273C79.4246 33.1273 79.1674 33.1074 78.8312 33.0676C78.4949 33.0279 78.2377 33.008 78.0597 33.008C77.8223 33.008 77.4564 33.0279 76.9618 33.0676C76.4673 33.1074 76.1013 33.1273 75.864 33.1273L74.9738 33.0378C74.8947 33.0179 74.8353 32.9881 74.7958 32.9483C74.776 32.8886 74.7661 32.8488 74.7661 32.8289C74.8452 32.6896 74.9145 32.6101 74.9738 32.5902C75.4486 32.4708 75.765 32.3912 75.9233 32.3514C76.4772 32.2321 76.853 31.8939 77.0508 31.3368C77.1497 31.0185 77.1992 30.4913 77.1992 29.7552Z" fill="#9B8652"/>
<path d="M101.091 18.6242C101.091 17.7489 100.962 17.1819 100.705 16.9233C100.468 16.6646 99.914 16.4756 99.0436 16.3563C98.9249 16.3563 98.8557 16.3463 98.8359 16.3264C98.6777 16.227 98.5985 16.1374 98.5985 16.0579C98.6776 15.9385 98.7667 15.8788 98.8656 15.8788L99.4293 15.849L102.782 15.9385L105.126 15.8788C105.74 15.8589 106.086 15.8888 106.165 15.9683L106.195 16.1175C106.195 16.2767 106.026 16.3563 105.69 16.3563C104.899 16.4557 104.375 16.6646 104.118 16.983C103.86 17.3013 103.732 17.8484 103.732 18.6242V27.6364C103.732 30.9389 105.265 32.5902 108.331 32.5902C112.07 32.5902 113.939 30.6206 113.939 26.6815V18.6242C113.939 17.8683 113.84 17.3311 113.642 17.0128C113.444 16.6945 112.999 16.4856 112.307 16.3861C111.733 16.3065 111.447 16.1971 111.447 16.0579C111.447 15.9186 111.555 15.849 111.773 15.849H112.188L114.325 15.9385L116.342 15.849L117.025 15.9086L117.114 16.0877C117.114 16.1673 117.074 16.227 116.995 16.2668C116.916 16.3065 116.827 16.3264 116.728 16.3264C115.897 16.4458 115.353 16.6249 115.096 16.8636C114.78 17.1421 114.621 17.6892 114.621 18.5049L114.651 18.6242V26.025C114.651 28.6312 114.157 30.5013 113.167 31.6352C112.099 32.8488 110.279 33.4556 107.708 33.4556C103.297 33.4556 101.091 31.6352 101.091 27.9945V18.6242Z" fill="#9B8652"/>
<path d="M119.715 27.8752C119.774 27.8752 119.932 28.2134 120.19 28.8898C120.368 29.3474 120.546 29.795 120.724 30.2327C121.515 31.9834 122.919 32.8587 124.937 32.8587C126.698 32.8587 127.825 32.1724 128.32 30.7997C128.478 30.362 128.557 29.9144 128.557 29.4568C128.557 27.8056 127.667 26.582 125.887 25.7863C125.392 25.5674 124.304 25.09 122.623 24.3539C120.981 23.3989 120.071 22.1157 119.893 20.5043V19.997C119.893 17.8285 121.001 16.406 123.216 15.7296C123.81 15.5506 124.383 15.461 124.937 15.461C125.174 15.461 125.709 15.5207 126.539 15.6401C126.678 15.6799 127.064 15.849 127.697 16.1474C128.231 16.4259 128.567 16.5652 128.705 16.5652C128.785 16.5652 128.933 16.3563 129.15 15.9385C129.269 15.7197 129.368 15.6102 129.447 15.6102L129.655 15.6998C129.774 15.8191 129.823 16.0081 129.803 16.2668L129.744 16.9531L129.714 17.4903L129.803 19.4598C129.823 19.9373 129.714 20.176 129.477 20.176L129.358 20.1462C128.646 18.0175 127.677 16.7343 126.45 16.2966C126.055 16.1573 125.59 16.0877 125.056 16.0877C124.185 16.0877 123.444 16.2966 122.83 16.7144C122.158 17.1918 121.822 17.8484 121.822 18.6839L121.792 18.8928C121.792 19.7483 122.158 20.4943 122.89 21.131C123.088 21.2901 124.423 21.9466 126.895 23.1005C128.696 23.9361 129.873 24.9507 130.426 26.1444C130.763 26.8606 130.931 27.6265 130.931 28.4422C130.931 29.0987 130.812 29.7154 130.575 30.2924C130.14 31.3667 129.358 32.1923 128.231 32.7692C127.242 33.2865 126.114 33.5451 124.848 33.5451C123.641 33.5451 122.524 33.2765 121.495 32.7394C121.317 32.6399 121.149 32.5305 120.991 32.4111C120.753 32.2719 120.575 32.2022 120.457 32.2022C120.279 32.2022 120.091 32.3912 119.893 32.7692C119.873 32.7891 119.824 32.8289 119.744 32.8886C119.685 32.9284 119.646 32.9582 119.626 32.9781L119.537 32.9184C119.418 32.8587 119.359 32.7394 119.359 32.5603L119.448 31.9038L119.507 30.7101L119.448 28.5615L119.418 28.3228C119.418 28.0244 119.517 27.8752 119.715 27.8752Z" fill="#9B8652"/>
<path fill-rule="evenodd" clip-rule="evenodd" d="M152.569 0.0580092C152.42 0.164215 151.695 0.655914 151.534 0.760439C151.384 0.857548 151.193 0.986706 150.995 1.12373C150.902 1.18834 150.776 1.2715 150.303 1.58062C150.166 1.66962 149.986 1.79228 149.901 1.85319C149.817 1.91413 149.722 1.97983 149.69 1.99923C149.576 2.06792 149.235 2.29225 149.079 2.4012C148.992 2.46197 148.851 2.55586 148.766 2.60983C148.68 2.66381 148.407 2.84734 148.16 3.01769C147.616 3.39144 147.638 3.36291 147.721 3.58258C147.739 3.63212 147.762 3.72591 147.77 3.791C147.779 3.85609 147.812 4.00808 147.844 4.12876C147.875 4.24944 147.911 4.40221 147.923 4.46826C147.935 4.53431 147.968 4.66941 147.995 4.76849C148.023 4.86756 148.07 5.04995 148.099 5.17379C148.129 5.29764 148.165 5.44287 148.18 5.49654C148.195 5.55021 148.215 5.65439 148.224 5.72803C148.233 5.80169 148.263 5.9368 148.291 6.02826C148.319 6.11974 148.352 6.22791 148.364 6.26868C148.377 6.30944 148.405 6.43441 148.429 6.54639C148.537 7.07073 148.612 7.39802 148.755 7.95841C148.801 8.13592 148.86 8.39262 148.888 8.52885C148.915 8.66507 148.961 8.86097 148.99 8.96418C149.018 9.06738 149.058 9.22612 149.078 9.31694C149.098 9.40776 149.144 9.60536 149.18 9.75603C149.216 9.90671 149.274 10.1533 149.309 10.3039C149.345 10.4546 149.391 10.6488 149.412 10.7355C149.504 11.1127 149.536 11.2479 149.567 11.396C149.584 11.4827 149.619 11.6246 149.642 11.7113C149.666 11.798 149.697 11.9263 149.712 11.9965C149.726 12.0667 149.771 12.2659 149.811 12.4393C149.851 12.6127 149.881 12.7583 149.881 12.7583C149.881 12.7583 149.822 12.659 149.756 12.5331C149.689 12.4072 149.6 12.24 149.558 12.1616C149.485 12.0238 149.44 11.9391 149.34 11.7488C149.232 11.5451 149.002 11.1075 148.786 10.698C148.659 10.4586 148.49 10.1377 148.409 9.98495C148.329 9.83221 148.26 9.70406 148.257 9.70017C148.254 9.69628 148.246 9.70226 148.239 9.71346C148.229 9.7297 148.217 9.73036 148.179 9.71679C148.142 9.70335 148.124 9.70416 148.094 9.72065C148.073 9.73214 147.873 9.83747 147.648 9.95469C147.424 10.0719 147.186 10.2044 147.12 10.249C147.053 10.2937 146.995 10.3302 146.99 10.3302C146.974 10.3302 146.225 10.8331 146.211 10.8533C146.207 10.8597 146.148 10.9082 146.079 10.9613C145.63 11.3111 144.753 12.2137 144.373 12.7192C144.279 12.844 144.084 13.1416 144.001 13.2877C143.976 13.3298 143.937 13.396 143.913 13.4347C143.654 13.8556 143.247 14.792 143.175 15.132C143.158 15.2094 143.116 15.3614 143.081 15.4698C143.005 15.7068 142.977 15.8174 142.965 15.937C142.95 16.0817 142.914 16.3553 142.906 16.3798C142.891 16.4315 142.852 16.7454 142.84 16.9127C142.828 17.0744 142.793 18.2303 142.795 18.3868C142.797 18.5263 142.77 18.5035 143.723 19.1741C144.125 19.4567 144.154 19.4772 144.149 19.4825C144.146 19.4854 144.019 19.4534 143.868 19.4113C143.716 19.3692 143.546 19.3221 143.49 19.3067C143.434 19.2913 143.348 19.2678 143.3 19.2545C143.252 19.2411 143.15 19.2132 143.074 19.1925C142.998 19.1718 142.886 19.141 142.826 19.1242C142.766 19.1074 142.684 19.0848 142.644 19.074C142.534 19.0444 142.39 19.0047 141.965 18.8862C141.753 18.8269 141.553 18.7719 141.521 18.764C141.488 18.7561 141.452 18.744 141.439 18.7372C141.421 18.7271 141.418 18.7327 141.423 18.7683C141.427 18.7939 141.422 18.8117 141.413 18.8117C141.388 18.8117 141.393 18.8828 141.426 18.9993C141.443 19.0571 141.469 19.2158 141.484 19.3521C141.515 19.6181 141.546 19.8203 141.578 19.9525C141.605 20.0631 141.626 20.2095 141.645 20.4179C141.659 20.5733 141.741 21.1171 141.754 21.1383C141.763 21.1532 141.833 21.5897 141.855 21.7689C141.867 21.8639 141.883 21.9744 141.892 22.0146C141.901 22.0547 141.921 22.1831 141.936 22.2998C141.952 22.4165 141.975 22.5694 141.988 22.6396C142.014 22.7907 142.017 22.9756 141.996 23.2025C141.988 23.2933 141.974 23.5095 141.965 23.6829C141.957 23.8562 141.947 24.015 141.944 24.0356C141.94 24.0563 141.93 24.1779 141.921 24.3058C141.913 24.4338 141.896 24.6398 141.885 24.7637C141.874 24.8875 141.858 25.1746 141.849 25.4017C141.83 25.929 141.811 26.1992 141.775 26.4525C141.759 26.5639 141.74 26.7077 141.732 26.7719C141.725 26.8361 141.716 26.894 141.712 26.9004C141.701 26.9177 141.674 27.343 141.659 27.736C141.651 27.9258 141.638 28.2433 141.631 28.4415C141.615 28.8357 141.603 28.9584 141.557 29.2071C141.54 29.2979 141.519 29.4229 141.511 29.4848C141.502 29.5467 141.487 29.6272 141.476 29.6636C141.46 29.7206 141.46 29.7348 141.48 29.7649C141.492 29.7842 141.507 29.8 141.513 29.8C141.519 29.8 141.632 29.747 141.763 29.6821C142.093 29.5194 142.213 29.4641 142.22 29.4715C142.227 29.4788 142.127 29.9926 142.076 30.2128C142.057 30.2954 142.027 30.4508 142.009 30.5581C141.992 30.6654 141.966 30.8073 141.951 30.8733C141.904 31.0834 141.865 31.2889 141.841 31.4513C141.827 31.538 141.785 31.7381 141.746 31.896C141.707 32.0539 141.662 32.2824 141.645 32.4038C141.629 32.5252 141.599 32.6932 141.58 32.7772C141.514 33.0604 141.45 33.4096 141.444 33.5156C141.439 33.603 141.446 33.6463 141.484 33.7694C141.51 33.8511 141.552 33.9663 141.578 34.0253C141.604 34.0843 141.637 34.1694 141.652 34.2143C141.68 34.3058 142.172 35.3351 142.243 35.4518C142.297 35.5412 142.492 35.8853 142.521 35.9421C142.552 36.0025 142.688 36.2216 142.752 36.315C142.783 36.3604 142.88 36.509 142.967 36.6452C143.107 36.8659 143.439 37.3328 143.585 37.5159C143.614 37.553 143.734 37.7017 143.85 37.8461C143.966 37.9906 144.109 38.1764 144.168 38.2589C144.353 38.5171 144.721 38.9237 145.416 39.6399C146.089 40.3344 146.629 40.8587 146.88 41.062C147.003 41.1621 147.161 41.294 147.651 41.7048C147.748 41.7871 147.849 41.8808 147.875 41.9131C147.959 42.021 148.048 42.0293 148.088 41.9329C148.104 41.8919 148.107 41.8472 148.1 41.7429C148.094 41.6613 148.097 41.5733 148.107 41.5239C148.176 41.1743 148.221 40.7087 148.238 40.1654C148.251 39.7746 148.284 39.3203 148.303 39.2896C148.306 39.2841 148.325 39.1817 148.346 39.062C148.385 38.8333 148.407 38.6187 148.421 38.319C148.437 37.9921 148.487 37.2865 148.508 37.0956C148.52 36.9924 148.536 36.7897 148.545 36.6452C148.554 36.5007 148.564 36.3718 148.567 36.3588C148.571 36.3458 148.584 36.1823 148.595 35.9956C148.607 35.8089 148.63 35.5527 148.646 35.4264C148.663 35.3 148.686 35.1223 148.698 35.0315C148.71 34.9407 148.73 34.7043 148.742 34.5061C148.755 34.3079 148.774 34.058 148.785 33.9507C148.796 33.8433 148.809 33.688 148.814 33.6054C148.819 33.5229 148.829 33.3979 148.837 33.3277C148.853 33.1766 148.864 33.004 148.925 31.9992C148.943 31.6939 148.948 31.6516 149.01 31.2861C149.06 30.9843 149.077 30.8007 149.099 30.3179C149.115 29.9667 149.134 29.6843 149.156 29.4548C149.215 28.862 149.244 28.5276 149.252 28.3327C149.263 28.0448 149.256 28.0225 149.115 27.9436C149.062 27.9137 148.989 27.8706 148.953 27.8478C148.917 27.8249 148.838 27.7796 148.778 27.747C148.564 27.6312 148.463 27.5737 148.331 27.494C148.258 27.4495 148.192 27.4132 148.186 27.4132C148.176 27.4132 148.14 27.3925 147.799 27.1906C147.713 27.14 147.602 27.076 147.551 27.0483C147.5 27.0206 147.354 26.939 147.227 26.867C147.1 26.795 146.98 26.7296 146.96 26.7218C146.94 26.714 146.895 26.6874 146.86 26.6629C146.825 26.6383 146.749 26.5924 146.69 26.5607C146.575 26.4992 145.974 26.1689 145.817 26.081C145.695 26.013 145.543 25.9248 145.35 25.8109C145.266 25.7612 145.128 25.6851 145.044 25.6418C144.959 25.5985 144.831 25.5244 144.759 25.4771C144.687 25.4299 144.588 25.3691 144.54 25.3422C144.492 25.3152 144.431 25.2767 144.405 25.2566C144.319 25.1903 144.313 25.1626 144.299 24.7735C144.269 24.0006 144.256 23.7515 144.235 23.6003C144.198 23.3317 144.168 22.9905 144.154 22.6696C144.146 22.5003 144.129 22.3044 144.117 22.2343C144.088 22.0644 144.089 22.0045 144.122 21.9739C144.137 21.9602 144.157 21.949 144.166 21.949C144.176 21.949 144.349 22.0061 144.551 22.0758C144.754 22.1454 144.959 22.2104 145.007 22.22C145.055 22.2297 145.106 22.2437 145.12 22.2512C145.133 22.2587 145.229 22.2845 145.331 22.3085C145.434 22.3326 145.596 22.3833 145.693 22.4214C145.789 22.4593 145.92 22.5002 145.984 22.5122C146.049 22.5242 146.151 22.5535 146.213 22.5772C146.274 22.601 146.399 22.639 146.49 22.6617C146.581 22.6844 146.738 22.7288 146.838 22.7605C146.938 22.7921 147.096 22.8397 147.188 22.8662C147.28 22.8928 147.377 22.9234 147.402 22.9343C147.427 22.9452 147.509 22.9678 147.584 22.9845C147.659 23.0012 147.816 23.0491 147.932 23.091C148.048 23.1329 148.203 23.1797 148.275 23.195C148.347 23.2103 148.455 23.2413 148.515 23.2638C148.576 23.2864 148.661 23.3132 148.705 23.3234C148.873 23.3624 149.04 23.4101 149.238 23.4753C149.455 23.5471 149.537 23.571 149.872 23.66C149.989 23.691 150.166 23.7468 150.266 23.7842C150.366 23.8216 150.501 23.8632 150.565 23.8766C150.629 23.8901 150.752 23.9241 150.837 23.9524C150.923 23.9806 151.018 24.0083 151.049 24.0139C151.132 24.0291 151.233 24.0566 151.397 24.1082C151.477 24.1336 151.58 24.1651 151.627 24.1782C151.673 24.1912 151.724 24.2152 151.74 24.2314C151.775 24.267 151.777 24.3476 151.748 24.4688C151.737 24.5154 151.724 24.6245 151.718 24.7111C151.707 24.8927 151.669 25.1331 151.608 25.4017C151.566 25.588 151.558 25.6344 151.513 26.0096C151.5 26.117 151.48 26.269 151.468 26.3474C151.456 26.4258 151.434 26.5846 151.418 26.7002C151.378 26.9995 151.35 27.1729 151.294 27.4808C151.24 27.7805 151.218 27.9237 151.164 28.3214C151.143 28.47 151.117 28.6423 151.106 28.7042C151.095 28.7661 151.078 28.8978 151.068 28.9969C151.044 29.2631 150.984 29.6266 150.95 29.723C150.898 29.8654 150.888 29.9126 150.899 29.9585C150.91 30.0039 151.201 30.3085 151.499 30.5857C151.683 30.7575 152.425 31.4802 152.513 31.5732C152.595 31.6606 152.625 31.6764 152.71 31.6764C152.794 31.6764 152.824 31.6607 152.906 31.5734C152.987 31.4881 153.453 31.0319 153.73 30.7672C154.187 30.3307 154.445 30.0745 154.484 30.0192C154.534 29.9492 154.536 29.9026 154.495 29.7968C154.478 29.7532 154.458 29.6972 154.45 29.6724C154.426 29.5931 154.379 29.2873 154.364 29.117C154.356 29.0262 154.331 28.8269 154.307 28.6742C154.283 28.5214 154.241 28.2343 154.213 28.0362C154.184 27.838 154.145 27.5881 154.125 27.4808C154.079 27.2353 154.037 26.9705 154.001 26.7003C153.985 26.5846 153.963 26.4258 153.951 26.3474C153.94 26.269 153.919 26.117 153.906 26.0096C153.861 25.6332 153.853 25.5878 153.809 25.3942C153.749 25.1296 153.711 24.8901 153.7 24.7065C153.695 24.6224 153.682 24.5154 153.671 24.4688C153.645 24.3594 153.645 24.2756 153.672 24.2359C153.687 24.2145 153.733 24.1936 153.814 24.1716C153.881 24.1536 153.994 24.1197 154.066 24.0963C154.197 24.0538 154.283 24.0307 154.38 24.0118C154.408 24.0064 154.5 23.9792 154.584 23.9515C154.668 23.9237 154.79 23.8901 154.854 23.8766C154.918 23.8632 155.053 23.8216 155.153 23.7842C155.253 23.7469 155.434 23.69 155.554 23.6579C155.881 23.5707 155.958 23.5484 156.186 23.4738C156.3 23.4362 156.474 23.385 156.572 23.3598C156.67 23.3347 156.819 23.2911 156.904 23.2629C156.988 23.2347 157.106 23.2016 157.166 23.1894C157.226 23.1771 157.371 23.1329 157.487 23.091C157.603 23.0491 157.76 23.0012 157.835 22.9845C157.91 22.9678 157.992 22.9452 158.017 22.9343C158.043 22.9234 158.139 22.8928 158.231 22.8662C158.323 22.8397 158.481 22.7921 158.581 22.7604C158.681 22.7288 158.826 22.6876 158.902 22.669C158.978 22.6503 159.114 22.6094 159.203 22.578C159.293 22.5466 159.401 22.5162 159.444 22.5105C159.487 22.5047 159.607 22.4668 159.712 22.4262C159.816 22.3855 159.985 22.3326 160.088 22.3085C160.19 22.2845 160.286 22.2587 160.299 22.2512C160.313 22.2437 160.364 22.2297 160.412 22.22C160.46 22.2104 160.665 22.1454 160.868 22.0758C161.07 22.0061 161.245 21.949 161.256 21.949C161.29 21.949 161.324 22.0018 161.324 22.0553C161.324 22.0835 161.314 22.1592 161.302 22.2233C161.29 22.2875 161.274 22.48 161.266 22.6512C161.251 22.9805 161.22 23.3396 161.184 23.6003C161.162 23.7624 161.146 24.0493 161.119 24.7388C161.108 25.0335 161.099 25.1451 161.083 25.1771C161.057 25.2277 160.999 25.2748 160.879 25.3422C160.831 25.3691 160.732 25.4297 160.66 25.4767C160.588 25.5237 160.46 25.5978 160.375 25.6414C160.291 25.685 160.153 25.7613 160.069 25.811C159.758 25.9948 159.688 26.0342 159.267 26.2658C159.03 26.3959 158.787 26.5291 158.727 26.5617C158.667 26.5944 158.601 26.633 158.581 26.6475C158.561 26.662 158.482 26.7073 158.406 26.7483C158.33 26.7892 158.199 26.8621 158.114 26.9102C158.03 26.9583 157.919 27.0204 157.868 27.0482C157.817 27.076 157.706 27.14 157.62 27.1904C157.327 27.3642 157.275 27.3935 157.248 27.4036C157.233 27.4092 157.161 27.45 157.088 27.4942C156.961 27.5709 156.868 27.6235 156.656 27.7395C156.376 27.8921 156.209 27.9994 156.184 28.0431C156.16 28.0843 156.159 28.1136 156.167 28.3253C156.176 28.5479 156.214 29.0203 156.247 29.3046C156.281 29.6028 156.292 29.7574 156.313 30.1978C156.345 30.896 156.354 30.9793 156.445 31.5038C156.47 31.6515 156.49 31.8678 156.509 32.2344C156.526 32.5443 156.547 32.8654 156.568 33.1401C156.599 33.554 156.626 33.8896 156.647 34.1083C156.659 34.2363 156.676 34.4626 156.685 34.6112C156.694 34.7598 156.714 34.9793 156.729 35.099C156.745 35.2188 156.767 35.3944 156.78 35.4894C156.792 35.5843 156.811 35.8039 156.823 35.9772C156.835 36.1506 156.851 36.3701 156.859 36.4651C156.867 36.56 156.88 36.7289 156.889 36.8404C156.897 36.9518 156.914 37.1444 156.925 37.2682C156.949 37.5243 156.985 38.0449 156.998 38.334C157.012 38.6193 157.045 38.9226 157.087 39.1446C157.142 39.4344 157.162 39.6548 157.18 40.1681C157.2 40.7255 157.241 41.1586 157.307 41.4939C157.323 41.5752 157.326 41.6466 157.319 41.7508C157.311 41.8676 157.314 41.9038 157.332 41.9411C157.376 42.0289 157.463 42.0174 157.545 41.9131C157.57 41.8808 157.671 41.7871 157.769 41.7048C157.866 41.6226 158.05 41.4689 158.175 41.3633C158.301 41.2576 158.455 41.1306 158.517 41.0811C158.615 41.0038 158.821 40.8159 159.061 40.5869C159.363 40.2984 160.008 39.6454 160.374 39.2568C160.883 38.7176 161.06 38.5155 161.236 38.2753C161.304 38.1823 161.439 38.0089 161.535 37.8899C161.986 37.3323 162.204 37.0322 162.586 36.4426C162.753 36.1856 162.858 36.0115 163.012 35.737C163.077 35.6214 163.151 35.4931 163.176 35.4518C163.247 35.3356 163.739 34.3061 163.768 34.2143C163.782 34.1694 163.814 34.0849 163.84 34.0266C163.993 33.6791 164.002 33.5633 163.91 33.11C163.877 32.9449 163.84 32.7724 163.828 32.7267C163.816 32.6811 163.792 32.5392 163.775 32.4115C163.757 32.2838 163.711 32.0504 163.672 31.8928C163.633 31.7352 163.587 31.519 163.571 31.4124C163.554 31.3058 163.517 31.1105 163.49 30.9784C163.462 30.8463 163.423 30.637 163.402 30.5134C163.381 30.3897 163.361 30.284 163.358 30.2786C163.345 30.2571 163.19 29.4808 163.197 29.4734C163.205 29.4653 163.37 29.5404 163.656 29.6817C163.788 29.7468 163.9 29.8 163.906 29.8C163.912 29.8 163.926 29.7854 163.938 29.7674C163.955 29.7402 163.956 29.7224 163.941 29.6586C163.931 29.6167 163.916 29.5384 163.908 29.4848C163.9 29.4311 163.879 29.3095 163.862 29.2146C163.815 28.9438 163.803 28.8272 163.788 28.4415C163.78 28.2433 163.768 27.9258 163.76 27.736C163.743 27.3019 163.721 26.9624 163.702 26.8653C163.673 26.7146 163.615 26.2444 163.6 26.0397C163.592 25.9241 163.578 25.6406 163.57 25.4098C163.561 25.1789 163.545 24.8885 163.534 24.7643C163.523 24.6401 163.51 24.4777 163.505 24.4034C163.5 24.3291 163.489 24.2008 163.482 24.1182C163.474 24.0356 163.458 23.7891 163.446 23.5703C163.434 23.3515 163.418 23.1124 163.41 23.0389C163.396 22.9003 163.406 22.7626 163.446 22.5495C163.458 22.4876 163.474 22.3761 163.483 22.3018C163.491 22.2275 163.511 22.0992 163.526 22.0166C163.541 21.934 163.564 21.7809 163.577 21.6762C163.59 21.5715 163.613 21.4128 163.63 21.3234C163.646 21.2341 163.679 21.0529 163.703 20.9208C163.727 20.7887 163.759 20.5565 163.775 20.4049C163.791 20.2532 163.817 20.0641 163.834 19.9846C163.885 19.74 163.904 19.6232 163.927 19.3971C163.94 19.2774 163.968 19.1073 163.99 19.0191C164.024 18.8792 164.026 18.854 164.009 18.8212C163.998 18.8005 163.993 18.7701 163.997 18.7535C164.003 18.7293 164 18.7259 163.981 18.7365C163.968 18.7437 163.931 18.7561 163.898 18.764C163.866 18.7719 163.666 18.8269 163.454 18.8862C163.241 18.9455 163.019 19.007 162.961 19.0229C162.903 19.0388 162.805 19.0661 162.742 19.0835C162.68 19.1009 162.597 19.1239 162.556 19.1346C162.476 19.1562 162.255 19.2167 162.119 19.2545C162.071 19.2678 161.985 19.2913 161.929 19.3067C161.873 19.3221 161.703 19.3692 161.551 19.4113C161.4 19.4534 161.273 19.4853 161.27 19.4822C161.267 19.4791 161.408 19.3764 161.582 19.254C161.757 19.1315 161.947 18.9971 162.005 18.9553C162.062 18.9134 162.214 18.8057 162.342 18.7159C162.518 18.5923 162.58 18.5401 162.599 18.5011C162.62 18.4558 162.621 18.3958 162.615 17.9964C162.603 17.3289 162.58 16.8498 162.548 16.6125C162.532 16.4969 162.516 16.3922 162.512 16.3798C162.505 16.355 162.469 16.0786 162.454 15.937C162.442 15.8174 162.414 15.7068 162.338 15.4698C162.303 15.3614 162.261 15.2094 162.245 15.132C162.173 14.7948 161.764 13.8555 161.498 13.4222C161.471 13.3766 161.44 13.3259 161.431 13.3096C161.332 13.1389 161.211 12.9467 161.153 12.8671C160.961 12.605 160.913 12.544 160.74 12.3417C160.532 12.0983 159.882 11.4314 159.645 11.2191C159.424 11.0202 159.11 10.7763 158.887 10.6298C158.781 10.5599 158.653 10.4747 158.603 10.4403C158.553 10.4059 158.49 10.3661 158.463 10.3518C158.436 10.3375 158.361 10.2904 158.297 10.2472C158.232 10.204 158.009 10.0798 157.8 9.97119C157.592 9.86261 157.391 9.75705 157.355 9.73659C157.296 9.70403 157.282 9.70154 157.24 9.71661C157.202 9.73037 157.19 9.72974 157.18 9.71346C157.173 9.70226 157.165 9.69628 157.161 9.70017C157.158 9.70406 157.027 9.95043 156.871 10.2477C156.714 10.5449 156.507 10.9367 156.412 11.1183C155.917 12.0547 155.842 12.1969 155.762 12.3492C155.622 12.617 155.542 12.7619 155.538 12.7576C155.534 12.7536 155.585 12.5223 155.65 12.2517C155.667 12.1815 155.692 12.0667 155.707 11.9965C155.721 11.9263 155.754 11.7946 155.779 11.7038C155.804 11.6129 155.847 11.4272 155.874 11.2909C155.902 11.1547 155.938 10.9993 155.954 10.9457C155.97 10.892 156 10.7738 156.021 10.683C156.042 10.5922 156.088 10.3929 156.124 10.2401C156.16 10.0874 156.219 9.83746 156.255 9.68472C156.348 9.2851 156.385 9.13275 156.445 8.90413C156.473 8.79267 156.516 8.6069 156.539 8.49132C156.562 8.37573 156.61 8.16632 156.646 8.02596C156.681 7.88561 156.725 7.70997 156.744 7.63567C156.762 7.56136 156.789 7.45649 156.804 7.40263C156.819 7.34875 156.85 7.21027 156.873 7.0949C156.896 6.9795 156.925 6.84456 156.938 6.79503C156.95 6.74549 156.974 6.63403 156.99 6.54734C157.022 6.38445 157.049 6.27966 157.125 6.03949C157.149 5.96245 157.181 5.82059 157.196 5.72425C157.211 5.6279 157.266 5.3802 157.319 5.17379C157.43 4.738 157.483 4.52081 157.538 4.28062C157.559 4.18567 157.589 4.06408 157.604 4.01041C157.619 3.95674 157.639 3.85879 157.648 3.79274C157.657 3.72669 157.68 3.63212 157.699 3.58258C157.75 3.44505 157.752 3.43092 157.731 3.37727C157.714 3.33605 157.632 3.27357 157.26 3.01769C157.012 2.84734 156.737 2.66247 156.648 2.60684C156.56 2.55123 156.447 2.47669 156.398 2.44122C156.298 2.37017 155.822 2.05486 155.729 1.99914C155.697 1.9798 155.602 1.91413 155.518 1.85319C155.433 1.79228 155.253 1.66962 155.117 1.58062C154.98 1.49163 154.846 1.40362 154.817 1.38505C154.67 1.28743 154.335 1.06283 154.2 0.970599C154.116 0.912805 153.988 0.82766 153.918 0.78138C153.7 0.639237 153.098 0.232142 152.93 0.114122C152.735 -0.023202 152.692 -0.0297775 152.569 0.0580092Z" fill="#9B8652"/>
<path d="M178.373 26.0548H184.308L181.43 18.6242L178.373 26.0548ZM184.545 26.8009H178.077L176.979 29.6358C176.722 30.2924 176.593 30.7897 176.593 31.1279C176.593 31.2473 176.652 31.4462 176.771 31.7248C176.87 32.063 177.424 32.3713 178.433 32.6499C178.532 32.7095 178.581 32.7792 178.581 32.8587C178.581 33.0179 178.472 33.0975 178.255 33.0975H177.928C177.711 33.0975 177.355 33.0776 176.86 33.0378C176.366 32.9781 175.99 32.9582 175.733 32.9781L173.834 33.0676C173.458 33.0875 173.211 33.0577 173.092 32.9781L172.943 32.7991C172.943 32.7195 173.023 32.6399 173.181 32.5603C173.339 32.4808 173.468 32.441 173.567 32.441C174.575 32.3216 175.466 31.3468 176.237 29.5165L181.934 15.849C182.073 15.5307 182.211 15.3715 182.35 15.3715C182.567 15.3715 182.745 15.5505 182.884 15.9086L188.521 30.2028C188.897 31.1379 189.342 31.7745 189.857 32.1127C190.035 32.1724 190.302 32.2719 190.658 32.4111C191.014 32.5305 191.281 32.63 191.459 32.7095L191.489 32.8289C191.489 32.9881 191.231 33.0676 190.717 33.0676L187.631 33.0079L186.177 33.0378C185.821 33.0975 185.396 33.1273 184.901 33.1273C184.387 33.1273 184.08 33.0477 183.981 32.8886C183.981 32.7692 184.12 32.6598 184.397 32.5603C184.436 32.5603 184.506 32.5404 184.605 32.5006C185.613 32.5006 186.118 32.1525 186.118 31.4562C186.118 31.297 186.088 31.0881 186.029 30.8295C185.97 30.6505 185.871 30.352 185.732 29.9343L184.545 26.8009Z" fill="#9B8652"/>
<path d="M198.9 30.3222C198.9 31.2572 199.068 31.8441 199.404 32.0829C199.503 32.1425 200.107 32.3116 201.214 32.5902C201.274 32.5902 201.313 32.62 201.333 32.6797C201.353 32.7195 201.373 32.7692 201.393 32.8289C201.393 32.9881 201.323 33.0676 201.185 33.0676H200.651L197.594 32.9781L194.123 33.0676C193.905 33.0676 193.796 32.9881 193.796 32.8289C193.796 32.6499 193.915 32.5603 194.153 32.5603C194.983 32.4808 195.537 32.2918 195.814 31.9933C196.111 31.675 196.259 31.108 196.259 30.2924V18.4452C196.259 17.0924 195.755 16.416 194.746 16.416C194.449 16.3762 194.202 16.3165 194.004 16.2369C193.965 16.217 193.876 16.1673 193.737 16.0877C193.836 16.0479 193.895 16.0181 193.915 15.9982C194.093 15.9186 194.261 15.8788 194.42 15.8788H194.716L195.992 15.9086C196.19 15.9086 197.189 15.8788 198.989 15.8191C200.117 15.7793 200.858 15.7594 201.214 15.7594C204.241 15.7594 206.16 16.4856 206.971 17.9379C207.347 18.6143 207.535 19.3603 207.535 20.176C207.535 22.0461 206.694 23.3492 205.012 24.0853C204.459 24.324 203.717 24.523 202.787 24.6821L208.336 31.2174C208.85 31.8143 209.503 32.2619 210.294 32.5603C210.452 32.5802 210.591 32.6399 210.71 32.7394C210.828 32.819 210.888 32.8886 210.888 32.9483L210.798 33.0676C210.739 33.1273 210.62 33.1572 210.442 33.1572L209.968 33.0975L208.84 33.0676H207.238C207 33.0676 206.803 33.0477 206.644 33.0079C206.506 32.9682 206.348 32.8587 206.17 32.6797L200.651 25.7266C200.552 25.5674 200.364 25.4282 200.087 25.3088C199.83 25.1695 199.602 25.0999 199.404 25.0999C199.088 25.0999 198.93 25.2889 198.93 25.6669L198.9 30.3222ZM198.93 23.8167C198.93 24.0952 198.979 24.2942 199.078 24.4135C199.197 24.5329 199.375 24.5826 199.612 24.5627L200.295 24.5031C201.897 24.3638 202.965 24.0753 203.499 23.6377C204.271 23.001 204.656 21.9566 204.656 20.5043C204.656 17.6992 203.262 16.2966 200.473 16.2966H200.087C199.315 16.2966 198.93 16.6149 198.93 17.2515V23.8167Z" fill="#9B8652"/>
<path d="M218.536 29.0092C218.477 29.8248 218.576 30.541 218.833 31.1578C219.11 31.7546 219.694 32.1226 220.584 32.2619C221.355 32.3813 222.028 32.441 222.601 32.441C224.402 32.441 225.658 32.0132 226.37 31.1578C226.469 31.0384 226.657 30.6405 226.934 29.9641C227.171 29.3673 227.329 29.0688 227.408 29.0688C227.527 29.1086 227.596 29.2181 227.616 29.3971C227.656 29.7154 227.675 29.974 227.675 30.173L227.586 32.5603C227.586 32.7991 227.547 32.9483 227.468 33.0079C227.389 33.0676 227.22 33.0975 226.963 33.0975L225.954 33.0676L215.302 33.0079C215.164 33.0079 214.956 33.0278 214.679 33.0676C214.402 33.1074 214.194 33.1273 214.056 33.1273L213.611 33.0676C213.551 33.008 213.502 32.9284 213.462 32.8289C213.542 32.6101 213.819 32.4808 214.293 32.441C215.104 32.3614 215.609 32.0232 215.807 31.4263C215.886 31.1876 215.925 30.7698 215.925 30.173V18.6242C215.925 18.0871 215.876 17.6594 215.777 17.3411C215.619 16.8636 215.322 16.5851 214.887 16.5055C214.61 16.4657 214.175 16.3961 213.581 16.2966L213.433 16.1175C213.551 15.9783 213.631 15.8987 213.67 15.8788L214.234 15.849L216.192 15.9385L217.795 15.9683L224.738 15.849L225.954 15.9385C226.172 15.9982 226.301 16.1474 226.34 16.3861V16.5652L226.251 17.8484L226.37 19.1316L226.34 19.43C226.261 19.5692 226.162 19.6389 226.043 19.6389L225.925 19.5792C225.806 19.0818 225.559 18.4253 225.183 17.6096C224.471 16.794 223.225 16.416 221.444 16.4756L219.575 16.5353C219.179 16.5552 218.912 16.6348 218.774 16.7741C218.616 16.973 218.536 17.2515 218.536 17.6096L218.566 17.8782V23.7869C220.168 23.7869 221.246 23.5282 221.8 23.011C222.156 22.6927 222.384 22.3843 222.483 22.0859C222.641 21.4095 222.77 20.9022 222.869 20.564C222.888 20.5043 222.958 20.4645 223.076 20.4446C223.274 20.4446 223.373 20.5441 223.373 20.743V21.131L223.254 23.9062C223.254 24.1649 223.284 24.6324 223.343 25.3088C223.383 25.8857 223.393 26.3433 223.373 26.6815L223.343 27.1888C223.284 27.3082 223.205 27.3679 223.106 27.3679C222.987 27.2883 222.918 27.2187 222.898 27.159L222.542 25.9952C222.206 24.9208 221.118 24.3837 219.278 24.3837H218.566L218.536 29.0092Z" fill="#9B8652"/>
<path d="M233.462 29.785C233.462 31.1379 233.778 31.9635 234.411 32.2619C234.708 32.3614 235.173 32.4907 235.806 32.6499L235.895 32.8587C235.816 32.9781 235.756 33.0477 235.717 33.0676L235.034 33.1273C234.797 33.1472 234.471 33.1373 234.055 33.0975C233.561 33.0378 233.224 33.0079 233.046 33.0079C232.888 33.0079 232.581 33.0378 232.126 33.0975C231.751 33.1373 231.454 33.1472 231.236 33.1273L230.554 33.0676C230.356 33.008 230.257 32.9184 230.257 32.7991C230.356 32.62 230.682 32.4808 231.236 32.3813C232.126 32.2221 232.601 31.7148 232.661 30.8594C232.68 30.5609 232.69 30.1929 232.69 29.7552V17.7588C232.097 16.8835 231.444 16.4458 230.732 16.4458C230.198 16.4458 229.931 16.3264 229.931 16.0877C230.01 15.9484 230.099 15.8788 230.198 15.8788L230.791 15.8191L232.809 15.9086L233.758 15.8788C233.917 15.8788 234.134 15.8987 234.411 15.9385C234.569 15.9982 234.718 16.1175 234.856 16.2966L245.331 29.4866V18.9227C245.331 17.1719 244.648 16.2966 243.283 16.2966C243.046 16.2966 242.927 16.217 242.927 16.0579L242.957 15.9086C243.075 15.8291 243.323 15.7992 243.699 15.8191L245.776 15.9086L247.853 15.849L248.387 15.8788C248.446 15.8987 248.486 15.9683 248.505 16.0877C248.426 16.227 248.367 16.2966 248.327 16.2966C247.793 16.3961 247.487 16.4657 247.408 16.5055C247.051 16.605 246.784 16.7542 246.606 16.9531C246.27 17.351 246.102 17.9478 246.102 18.7436L246.132 18.9525V32.7394C246.132 33.2367 245.993 33.4854 245.716 33.4854C245.617 33.4854 245.489 33.4357 245.331 33.3362C245.192 33.2367 245.044 33.0875 244.885 32.8886L233.462 18.5944V29.785Z" fill="#9B8652"/>
<path d="M254.845 26.0548H260.779L257.901 18.6242L254.845 26.0548ZM261.017 26.8009H254.548L253.45 29.6358C253.193 30.2924 253.065 30.7897 253.065 31.1279C253.065 31.2473 253.124 31.4462 253.243 31.7248C253.342 32.063 253.895 32.3713 254.904 32.6499C255.003 32.7095 255.053 32.7792 255.053 32.8587C255.053 33.0179 254.944 33.0975 254.726 33.0975H254.4C254.182 33.0975 253.826 33.0776 253.332 33.0378C252.837 32.9781 252.461 32.9582 252.204 32.9781L250.305 33.0676C249.929 33.0875 249.682 33.0577 249.563 32.9781L249.415 32.7991C249.415 32.7195 249.494 32.6399 249.652 32.5603C249.811 32.4808 249.939 32.441 250.038 32.441C251.047 32.3216 251.937 31.3468 252.709 29.5165L258.406 15.849C258.544 15.5307 258.683 15.3715 258.821 15.3715C259.039 15.3715 259.217 15.5505 259.355 15.9086L264.993 30.2028C265.369 31.1379 265.814 31.7745 266.328 32.1127C266.506 32.1724 266.773 32.2719 267.129 32.4111C267.485 32.5305 267.752 32.63 267.93 32.7095L267.96 32.8289C267.96 32.9881 267.703 33.0676 267.189 33.0676L264.103 33.0079L262.649 33.0378C262.293 33.0975 261.867 33.1273 261.373 33.1273C260.859 33.1273 260.552 33.0477 260.453 32.8886C260.453 32.7692 260.591 32.6598 260.868 32.5603C260.908 32.5603 260.977 32.5404 261.076 32.5006C262.085 32.5006 262.589 32.1525 262.589 31.4562C262.589 31.297 262.56 31.0881 262.5 30.8295C262.441 30.6505 262.342 30.352 262.204 29.9343L261.017 26.8009Z" fill="#9B8652"/>
</svg>
