<svg width="14" height="20" viewBox="0 0 14 20" fill="none" xmlns="http://www.w3.org/2000/svg">
<path fill-rule="evenodd" clip-rule="evenodd" d="M7 12C10.3137 12 13 9.31371 13 6C13 2.68629 10.3137 0 7 0C3.68629 0 1 2.68629 1 6C1 9.31371 3.68629 12 7 12ZM11 6C11 8.20914 9.20914 10 7 10C4.79086 10 3 8.20914 3 6C3 3.79086 4.79086 2 7 2C9.20914 2 11 3.79086 11 6ZM2 16.5C2 16.4971 2.00004 16.4795 2.01675 16.4421C2.03448 16.4025 2.07168 16.3399 2.14605 16.259C2.29899 16.0927 2.57327 15.8889 3.00727 15.6916C3.87352 15.2978 5.22322 15 7.00001 15C8.77679 15 10.1265 15.2978 10.9927 15.6916C11.4267 15.8889 11.701 16.0927 11.8539 16.259C11.9283 16.3399 11.9655 16.4025 11.9832 16.4421C12 16.4795 12 16.4971 12 16.5L12 18.4531V18.873V18.9695V18.9925V18.9982V18.9995C12 19.5518 12.4477 20 13 20C13.5523 20 14 19.5523 14 19V18.9981V18.9925V18.9695V18.873L14 18.4531V16.5C14 15.2483 12.9291 14.3749 11.8204 13.8709C10.6244 13.3272 8.97408 13 7.00001 13C5.02593 13 3.37562 13.3272 2.17959 13.8709C1.07086 14.3749 0 15.2483 0 16.5V16.5073V16.5146V16.522V16.5293V16.5366V16.5439V16.5513V16.5586V16.5659V16.5732V16.5806V16.5879V16.5952V16.6025V16.6098V16.6171V16.6245V16.6318V16.6391V16.6464V16.6537V16.661V16.6683V16.6757V16.683V16.6903V16.6976V16.7049V16.7122V16.7195V16.7268V16.7341V16.7414V16.7487V16.7559V16.7632V16.7705V16.7778V16.7851V16.7924V16.7997V16.8069V16.8142V16.8215V16.8287V16.836V16.8433V16.8505V16.8578V16.865V16.8723V16.8796V16.8868V16.894V16.9013V16.9085V16.9158V16.923V16.9302V16.9374V16.9447V16.9519V16.9591V16.9663V16.9735V16.9807V16.9879V16.9951V17.0023V17.0095V17.0167V17.0239V17.031V17.0382V17.0454V17.0526V17.0597V17.0669V17.074V17.0812V17.0883V17.0955V17.1026V17.1097V17.1168V17.124V17.1311V17.1382V17.1453V17.1524V17.1595V17.1666V17.1737V17.1807V17.1878V17.1949V17.202V17.209V17.2161V17.2231V17.2302V17.2372V17.2442V17.2512V17.2583V17.2653V17.2723V17.2793V17.2863V17.2933V17.3003V17.3072V17.3142V17.3212V17.3281V17.3351V17.342V17.349V17.3559V17.3628V17.3697V17.3766V17.3835V17.3904V17.3973V17.4042V17.4111V17.418V17.4248V17.4317V17.4385V17.4454V17.4522V17.459V17.4659V17.4727V17.4795V17.4863V17.4931V17.4998V17.5066V17.5134V17.5201V17.5269V17.5336V17.5404V17.5471V17.5538V17.5605V17.5672V17.5739V17.5806V17.5872V17.5939V17.6006V17.6072V17.6139V17.6205V17.6271V17.6337V17.6403V17.6469V17.6535V17.6601V17.6667V17.6732V17.6798V17.6863V17.6928V17.6994V17.7059V17.7124V17.7189V17.7254V17.7318V17.7383V17.7447V17.7512V17.7576V17.764V17.7705V17.7769V17.7833V17.7896V17.796V17.8024V17.8087V17.8151V17.8214V17.8277V17.834V17.8403V17.8466V17.8529V17.8592V17.8654V17.8717V17.8779V17.8841V17.8903V17.8965V17.9027V17.9089V17.9151V17.9212V17.9274V17.9335V17.9396V17.9457V17.9518V17.9579V17.964V17.9701V17.9761V17.9821V17.9882V17.9942V18.0002V18.0062V18.0122V18.0181V18.0241V18.03V18.0359V18.0419V18.0478V18.0537V18.0595V18.0654V18.0713V18.0771V18.0829V18.0887V18.0945V18.1003V18.1061V18.1119V18.1176V18.1233V18.1291V18.1348V18.1405V18.1462V18.1518V18.1575V18.1631V18.1687V18.1744V18.18V18.1855V18.1911V18.1967V18.2022V18.2077V18.2132V18.2188V18.2242V18.2297V18.2352V18.2406V18.246V18.2514V18.2568V18.2622V18.2676V18.273V18.2783V18.2836V18.2889V18.2942V18.2995V18.3048V18.31V18.3153V18.3205V18.3257V18.3309V18.336V18.3412V18.3463V18.3515V18.3566V18.3617V18.3667V18.3718V18.3769V18.3819V18.3869V18.3919V18.3969V18.4018V18.4068V18.4117V18.4167V18.4216V18.4264V18.4313V18.4362V18.441V18.4458V18.4506V18.4554V18.4602V18.4649V18.4696V18.4744V18.4791V18.4837V18.4884V18.4931V18.4977V18.5023V18.5069V18.5115V18.516V18.5206V18.5251V18.5296V18.5341V18.5386V18.543V18.5475V18.5519V18.5563V18.5607V18.565V18.5694V18.5737V18.578V18.5823V18.5866V18.5908V18.5951V18.5993V18.6035V18.6077V18.6118V18.616V18.6201V18.6242V18.6283V18.6323V18.6364V18.6404V18.6444V18.6484V18.6524V18.6563V18.6603V18.6642V18.6681V18.6719V18.6758V18.6796V18.6834V18.6872V18.691V18.6948V18.6985V18.7022V18.7059V18.7096V18.7132V18.7169V18.7205V18.7241V18.7276V18.7312V18.7347V18.7382V18.7417V18.7452V18.7486V18.752V18.7555V18.7588V18.7622V18.7655V18.7689V18.7722V18.7754V18.7787V18.7819V18.7852V18.7883V18.7915V18.7947V18.7978V18.8009V18.804V18.8071V18.8101V18.8131V18.8161V18.8191V18.822V18.825V18.8279V18.8308V18.8336V18.8365V18.8393V18.8421V18.8449V18.8476V18.8504V18.8531V18.8558V18.8584V18.8611V18.8637V18.8663V18.8688V18.8714V18.8739V18.8764V18.8789V18.8813V18.8838V18.8862V18.8886V18.8909V18.8933V18.8956V18.8979V18.9001V18.9024V18.9046V18.9068V18.9089V18.9111V18.9132V18.9153V18.9174V18.9194V18.9215V18.9235V18.9254V18.9274V18.9293V18.9312V18.9331V18.935V18.9368V18.9386V18.9404V18.9421V18.9438V18.9456V18.9472V18.9489V18.9505V18.9521V18.9537V18.9552V18.9568V18.9583V18.9598V18.9612V18.9626V18.964V18.9654V18.9667V18.9681V18.9694V18.9706V18.9719V18.9731V18.9743V18.9755V18.9766V18.9777V18.9788V18.9799V18.9809V18.9819V18.9838V18.9857V18.9874V18.989V18.9905V18.9919V18.9932V18.9944V18.9954V18.9968V18.998V18.9991C0 19.5514 0.447715 20 1 20C1.55228 20 2 19.5523 2 19V18.9988V18.9976V18.9964V18.9949V18.9938V18.9925V18.9912V18.9898V18.9882V18.9865V18.9848V18.9829V18.9809V18.9799V18.9788V18.9777V18.9766V18.9755V18.9743V18.9731V18.9719V18.9706V18.9694V18.9681V18.9667V18.9654V18.964V18.9626V18.9612V18.9598V18.9583V18.9568V18.9552V18.9537V18.9521V18.9505V18.9489V18.9472V18.9456V18.9438V18.9421V18.9404V18.9386V18.9368V18.935V18.9331V18.9312V18.9293V18.9274V18.9254V18.9235V18.9215V18.9194V18.9174V18.9153V18.9132V18.9111V18.9089V18.9068V18.9046V18.9024V18.9001V18.8979V18.8956V18.8933V18.8909V18.8886V18.8862V18.8838V18.8813V18.8789V18.8764V18.8739V18.8714V18.8688V18.8663V18.8637V18.8611V18.8584V18.8558V18.8531V18.8504V18.8476V18.8449V18.8421V18.8393V18.8365V18.8336V18.8308V18.8279V18.825V18.822V18.8191V18.8161V18.8131V18.8101V18.8071V18.804V18.8009V18.7978V18.7947V18.7915V18.7883V18.7852V18.7819V18.7787V18.7754V18.7722V18.7689V18.7655V18.7622V18.7588V18.7555V18.752V18.7486V18.7452V18.7417V18.7382V18.7347V18.7312V18.7276V18.7241V18.7205V18.7169V18.7132V18.7096V18.7059V18.7022V18.6985V18.6948V18.691V18.6872V18.6834V18.6796V18.6758V18.6719V18.6681V18.6642V18.6603V18.6563V18.6524V18.6484V18.6444V18.6404V18.6364V18.6323V18.6283V18.6242V18.6201V18.616V18.6118V18.6077V18.6035V18.5993V18.5951V18.5908V18.5866V18.5823V18.578V18.5737V18.5694V18.565V18.5607V18.5563V18.5519V18.5475V18.543V18.5386V18.5341V18.5296V18.5251V18.5206V18.516V18.5115V18.5069V18.5023V18.4977V18.4931V18.4884V18.4837V18.4791V18.4744V18.4696V18.4649V18.4602V18.4554V18.4506V18.4458V18.441V18.4362V18.4313V18.4264V18.4216V18.4167V18.4117V18.4068V18.4018V18.3969V18.3919V18.3869V18.3819V18.3769V18.3718V18.3667V18.3617V18.3566V18.3515V18.3463V18.3412V18.336V18.3309V18.3257V18.3205V18.3153V18.31V18.3048V18.2995V18.2942V18.2889V18.2836V18.2783V18.273V18.2676V18.2622V18.2568V18.2514V18.246V18.2406V18.2352V18.2297V18.2242V18.2188V18.2132V18.2077V18.2022V18.1967V18.1911V18.1855V18.18V18.1744V18.1687V18.1631V18.1575V18.1518V18.1462V18.1405V18.1348V18.1291V18.1233V18.1176V18.1119V18.1061V18.1003V18.0945V18.0887V18.0829V18.0771V18.0713V18.0654V18.0595V18.0537V18.0478V18.0419V18.0359V18.03V18.0241V18.0181V18.0122V18.0062V18.0002V17.9942V17.9882V17.9821V17.9761V17.9701V17.964V17.9579V17.9518V17.9457V17.9396V17.9335V17.9274V17.9212V17.9151V17.9089V17.9027V17.8965V17.8903V17.8841V17.8779V17.8717V17.8654V17.8592V17.8529V17.8466V17.8403V17.834V17.8277V17.8214V17.8151V17.8087V17.8024V17.796V17.7896V17.7833V17.7769V17.7705V17.764V17.7576V17.7512V17.7447V17.7383V17.7318V17.7254V17.7189V17.7124V17.7059V17.6994V17.6928V17.6863V17.6798V17.6732V17.6667V17.6601V17.6535V17.6469V17.6403V17.6337V17.6271V17.6205V17.6139V17.6072V17.6006V17.5939V17.5872V17.5806V17.5739V17.5672V17.5605V17.5538V17.5471V17.5404V17.5336V17.5269V17.5201V17.5134V17.5066V17.4998V17.4931V17.4863V17.4795V17.4727V17.4659V17.459V17.4522V17.4454V17.4385V17.4317V17.4248V17.418V17.4111V17.4042V17.3973V17.3904V17.3835V17.3766V17.3697V17.3628V17.3559V17.349V17.342V17.3351V17.3281V17.3212V17.3142V17.3072V17.3003V17.2933V17.2863V17.2793V17.2723V17.2653V17.2583V17.2512V17.2442V17.2372V17.2302V17.2231V17.2161V17.209V17.202V17.1949V17.1878V17.1807V17.1737V17.1666V17.1595V17.1524V17.1453V17.1382V17.1311V17.124V17.1168V17.1097V17.1026V17.0955V17.0883V17.0812V17.074V17.0669V17.0597V17.0526V17.0454V17.0382V17.031V17.0239V17.0167V17.0095V17.0023V16.9951V16.9879V16.9807V16.9735V16.9663V16.9591V16.9519V16.9447V16.9374V16.9302V16.923V16.9158V16.9085V16.9013V16.894V16.8868V16.8796V16.8723V16.865V16.8578V16.8505V16.8433V16.836V16.8287V16.8215V16.8142V16.8069V16.7997V16.7924V16.7851V16.7778V16.7705V16.7632V16.7559V16.7487V16.7414V16.7341V16.7268V16.7195V16.7122V16.7049V16.6976V16.6903V16.683V16.6757V16.6683V16.661V16.6537V16.6464V16.6391V16.6318V16.6245V16.6171V16.6098V16.6025V16.5952V16.5879V16.5806V16.5732V16.5659V16.5586V16.5513V16.5439V16.5366V16.5293V16.522V16.5146V16.5073V16.5Z" fill="#9B8652"/>
<path d="M2.01675 16.4421C2.00004 16.4795 2 16.4971 2 16.5V16.5073V16.5146V16.522V16.5293V16.5366V16.5439V16.5513V16.5586V16.5659V16.5732V16.5806V16.5879V16.5952V16.6025V16.6098V16.6171V16.6245V16.6318V16.6391V16.6464V16.6537V16.661V16.6683V16.6757V16.683V16.6903V16.6976V16.7049V16.7122V16.7195V16.7268V16.7341V16.7414V16.7487V16.7559V16.7632V16.7705V16.7778V16.7851V16.7924V16.7997V16.8069V16.8142V16.8215V16.8287V16.836V16.8433V16.8505V16.8578V16.865V16.8723V16.8796V16.8868V16.894V16.9013V16.9085V16.9158V16.923V16.9302V16.9374V16.9447V16.9519V16.9591V16.9663V16.9735V16.9807V16.9879V16.9951V17.0023V17.0095V17.0167V17.0239V17.031V17.0382V17.0454V17.0526V17.0597V17.0669V17.074V17.0812V17.0883V17.0955V17.1026V17.1097V17.1168V17.124V17.1311V17.1382V17.1453V17.1524V17.1595V17.1666V17.1737V17.1807V17.1878V17.1949V17.202V17.209V17.2161V17.2231V17.2302V17.2372V17.2442V17.2512V17.2583V17.2653V17.2723V17.2793V17.2863V17.2933V17.3003V17.3072V17.3142V17.3212V17.3281V17.3351V17.342V17.349V17.3559V17.3628V17.3697V17.3766V17.3835V17.3904V17.3973V17.4042V17.4111V17.418V17.4248V17.4317V17.4385V17.4454V17.4522V17.459V17.4659V17.4727V17.4795V17.4863V17.4931V17.4998V17.5066V17.5134V17.5201V17.5269V17.5336V17.5404V17.5471V17.5538V17.5605V17.5672V17.5739V17.5806V17.5872V17.5939V17.6006V17.6072V17.6139V17.6205V17.6271V17.6337V17.6403V17.6469V17.6535V17.6601V17.6667V17.6732V17.6798V17.6863V17.6928V17.6994V17.7059V17.7124V17.7189V17.7254V17.7318V17.7383V17.7447V17.7512V17.7576V17.764V17.7705V17.7769V17.7833V17.7896V17.796V17.8024V17.8087V17.8151V17.8214V17.8277V17.834V17.8403V17.8466V17.8529V17.8592V17.8654V17.8717V17.8779V17.8841V17.8903V17.8965V17.9027V17.9089V17.9151V17.9212V17.9274V17.9335V17.9396V17.9457V17.9518V17.9579V17.964V17.9701V17.9761V17.9821V17.9882V17.9942V18.0002V18.0062V18.0122V18.0181V18.0241V18.03V18.0359V18.0419V18.0478V18.0537V18.0595V18.0654V18.0713V18.0771V18.0829V18.0887V18.0945V18.1003V18.1061V18.1119V18.1176V18.1233V18.1291V18.1348V18.1405V18.1462V18.1518V18.1575V18.1631V18.1687V18.1744V18.18V18.1855V18.1911V18.1967V18.2022V18.2077V18.2132V18.2188V18.2242V18.2297V18.2352V18.2406V18.246V18.2514V18.2568V18.2622V18.2676V18.273V18.2783V18.2836V18.2889V18.2942V18.2995V18.3048V18.31V18.3153V18.3205V18.3257V18.3309V18.336V18.3412V18.3463V18.3515V18.3566V18.3617V18.3667V18.3718V18.3769V18.3819V18.3869V18.3919V18.3969V18.4018V18.4068V18.4117V18.4167V18.4216V18.4264V18.4313V18.4362V18.441V18.4458V18.4506V18.4554V18.4602V18.4649V18.4696V18.4744V18.4791V18.4837V18.4884V18.4931V18.4977V18.5023V18.5069V18.5115V18.516V18.5206V18.5251V18.5296V18.5341V18.5386V18.543V18.5475V18.5519V18.5563V18.5607V18.565V18.5694V18.5737V18.578V18.5823V18.5866V18.5908V18.5951V18.5993V18.6035V18.6077V18.6118V18.616V18.6201V18.6242V18.6283V18.6323V18.6364V18.6404V18.6444V18.6484V18.6524V18.6563V18.6603V18.6642V18.6681V18.6719V18.6758V18.6796V18.6834V18.6872V18.691V18.6948V18.6985V18.7022V18.7059V18.7096V18.7132V18.7169V18.7205V18.7241V18.7276V18.7312V18.7347V18.7382V18.7417V18.7452V18.7486V18.752V18.7555V18.7588V18.7622V18.7655V18.7689V18.7722V18.7754V18.7787V18.7819V18.7852V18.7883V18.7915V18.7947V18.7978V18.8009V18.804V18.8071V18.8101V18.8131V18.8161V18.8191V18.822V18.825V18.8279V18.8308V18.8336V18.8365V18.8393V18.8421V18.8449V18.8476V18.8504V18.8531V18.8558V18.8584V18.8611V18.8637V18.8663V18.8688V18.8714V18.8739V18.8764V18.8789V18.8813V18.8838V18.8862V18.8886V18.8909V18.8933V18.8956V18.8979V18.9001V18.9024V18.9046V18.9068V18.9089V18.9111V18.9132V18.9153V18.9174V18.9194V18.9215V18.9235V18.9254V18.9274V18.9293V18.9312V18.9331V18.935V18.9368V18.9386V18.9404V18.9421V18.9438V18.9456V18.9472V18.9489V18.9505V18.9521V18.9537V18.9552V18.9568V18.9583V18.9598V18.9612V18.9626V18.964V18.9654V18.9667V18.9681V18.9694V18.9706V18.9719V18.9731V18.9743V18.9755V18.9766V18.9777V18.9788V18.9799V18.9809V18.9829V18.9848V18.9865V18.9882V18.9898V18.9912V18.9925V18.9938V18.9949V18.9964V18.9976V18.9988V19C2 19.5523 1.55228 20 1 20H13C12.4477 20 12 19.5518 12 18.9995V18.9982V18.9925V18.9695V18.873V18.4531L12 16.5C12 16.4971 12 16.4795 11.9832 16.4421C11.9655 16.4025 11.9283 16.3399 11.8539 16.259C11.701 16.0927 11.4267 15.8889 10.9927 15.6916C10.1265 15.2978 8.77679 15 7.00001 15C5.22322 15 3.87352 15.2978 3.00727 15.6916C2.57327 15.8889 2.29899 16.0927 2.14605 16.259C2.07168 16.3399 2.03448 16.4025 2.01675 16.4421Z" fill="#9B8652"/>
<path d="M7 10C9.20914 10 11 8.20914 11 6C11 3.79086 9.20914 2 7 2C4.79086 2 3 3.79086 3 6C3 8.20914 4.79086 10 7 10Z" fill="#9B8652"/>
</svg>
