<svg width="14" height="12" viewBox="0 0 14 12" fill="none" xmlns="http://www.w3.org/2000/svg">
<path fill-rule="evenodd" clip-rule="evenodd" d="M4.79564 1.47945L4.281 2.94645C4.17507 3.24841 3.87791 3.45206 3.54321 3.45206H1.55556V10.5205H12.4444V3.45206L10.4568 3.45206C10.1219 3.45206 9.82466 3.24822 9.71886 2.94606L9.20533 1.47945H4.79564ZM10.4568 6.65753C10.4568 8.47327 8.90913 9.94521 7 9.94521C5.09087 9.94521 3.54321 8.47327 3.54321 6.65753C3.54321 4.8418 5.09087 3.36986 7 3.36986C8.90913 3.36986 10.4568 4.8418 10.4568 6.65753Z" fill="white"/>
<path fill-rule="evenodd" clip-rule="evenodd" d="M3.49743 0.505605C3.60336 0.203646 3.90052 0 4.23522 0H9.76609C10.1009 0 10.3982 0.20384 10.504 0.506004L11.0175 1.97261L13.2222 1.97261C13.4285 1.97261 13.6263 2.05054 13.7722 2.18927C13.9181 2.32799 14 2.51614 14 2.71233V11.2603C14 11.6688 13.6518 12 13.2222 12H0.777778C0.348223 12 0 11.6688 0 11.2603V2.71233C0 2.30379 0.348223 1.97261 0.777778 1.97261H2.98279L3.49743 0.505605ZM4.79564 1.47945L4.281 2.94645C4.17507 3.24841 3.87791 3.45206 3.54321 3.45206H1.55556V10.5205H12.4444V3.45206L10.4568 3.45206C10.1219 3.45206 9.82466 3.24822 9.71886 2.94606L9.20533 1.47945H4.79564Z" fill="white"/>
</svg>
