<svg width="14" height="14" viewBox="0 0 14 14" fill="none" xmlns="http://www.w3.org/2000/svg">
<path fill-rule="evenodd" clip-rule="evenodd" d="M1.17298 6.17058C0.7149 6.17058 0.343557 6.54192 0.343557 7C0.343557 7.45808 0.7149 7.82942 1.17298 7.82942L6.24165 7.82942L6.24165 12.8981C6.24165 13.3562 6.61299 13.7275 7.07107 13.7275C7.52914 13.7275 7.90049 13.3562 7.90049 12.8981L7.90049 7.82942L12.9692 7.82942C13.4272 7.82942 13.7986 7.45808 13.7986 7C13.7986 6.54192 13.4272 6.17058 12.9692 6.17058L7.90049 6.17058L7.90049 1.10191C7.90049 0.643833 7.52914 0.272489 7.07107 0.272489C6.61299 0.272489 6.24165 0.643833 6.24165 1.10191L6.24165 6.17058L1.17298 6.17058Z" fill="white"/>
</svg>
