<svg width="14" height="14" viewBox="0 0 14 14" fill="none" xmlns="http://www.w3.org/2000/svg">
<path fill-rule="evenodd" clip-rule="evenodd" d="M10.9565 6.26087C10.9565 8.85421 8.85421 10.9565 6.26087 10.9565C3.66753 10.9565 1.56522 8.85421 1.56522 6.26087C1.56522 3.66753 3.66753 1.56522 6.26087 1.56522C8.85421 1.56522 10.9565 3.66753 10.9565 6.26087ZM10.1001 11.2068C9.03988 12.031 7.70769 12.5217 6.26087 12.5217C2.80309 12.5217 0 9.71865 0 6.26087C0 2.80309 2.80309 0 6.26087 0C9.71865 0 12.5217 2.80309 12.5217 6.26087C12.5217 7.70769 12.031 9.03988 11.2068 10.1001L13.7708 12.664C14.0764 12.9696 14.0764 13.4652 13.7708 13.7708C13.4652 14.0764 12.9696 14.0764 12.664 13.7708L10.1001 11.2068Z" fill="#6C6C6C"/>
</svg>
