<svg width="14" height="14" viewBox="0 0 14 14" fill="none" xmlns="http://www.w3.org/2000/svg">
<path fill-rule="evenodd" clip-rule="evenodd" d="M6.34596 0.333374C5.60958 0.333374 5.01263 0.930328 5.01263 1.66671V2.30239L4.95374 2.33184L4.47914 1.85723C3.95844 1.33653 3.11422 1.33653 2.59352 1.85723L1.82195 2.6288C1.30125 3.14949 1.30125 3.99371 1.82195 4.51441L2.29656 4.98902L2.26712 5.04791H1.63143C0.895049 5.04791 0.298096 5.64486 0.298096 6.38124V7.61947C0.298096 8.35585 0.895049 8.9528 1.63143 8.9528H2.26712L2.29656 9.01169L1.82195 9.4863C1.30125 10.007 1.30125 10.8512 1.82195 11.3719L2.59352 12.1435C3.11422 12.6642 3.95844 12.6642 4.47914 12.1435L4.95374 11.6689L5.01263 11.6983V12.334C5.01263 13.0704 5.60958 13.6673 6.34596 13.6673H7.58419C8.32057 13.6673 8.91753 13.0704 8.91753 12.334V11.6983L8.97641 11.6689L9.45102 12.1435C9.97172 12.6642 10.8159 12.6642 11.3366 12.1435L12.1082 11.3719C12.6289 10.8512 12.6289 10.007 12.1082 9.4863L11.6336 9.01169L11.663 8.9528H12.2987C13.0351 8.9528 13.6321 8.35585 13.6321 7.61947V6.38124C13.6321 5.64486 13.0351 5.04791 12.2987 5.04791H11.663L11.6336 4.98902L12.1082 4.51441C12.6289 3.99372 12.6289 3.14949 12.1082 2.6288L11.3366 1.85723C10.8159 1.33653 9.97172 1.33653 9.45102 1.85723L8.97641 2.33184L8.91753 2.30239V1.66671C8.91753 0.930328 8.32057 0.333374 7.58419 0.333374H6.34596ZM6.96483 4.61929C5.64995 4.61929 4.58404 5.6852 4.58404 7.00008C4.58404 8.31495 5.64995 9.38087 6.96483 9.38087C8.2797 9.38087 9.34562 8.31495 9.34562 7.00008C9.34562 5.6852 8.2797 4.61929 6.96483 4.61929ZM6.96483 5.95262C6.38633 5.95262 5.91737 6.42158 5.91737 7.00008C5.91737 7.57858 6.38633 8.04754 6.96483 8.04754C7.54332 8.04754 8.01229 7.57858 8.01229 7.00008C8.01229 6.42158 7.54332 5.95262 6.96483 5.95262Z" fill="white"/>
</svg>
